<?xml version="1.0" encoding="UTF-8"?>
<svg version="1.1" xmlns="http://www.w3.org/2000/svg" width="512" height="512">
<path d="M0 0 C1.36081574 -0.00417584 2.721628 -0.00965473 4.08243382 -0.01631981 C7.81183191 -0.03076059 11.54100875 -0.02653403 15.27041888 -0.019153 C19.29642986 -0.0144202 23.32239304 -0.0269322 27.34838867 -0.03717041 C35.23192545 -0.05436184 43.11538253 -0.05519767 50.99893318 -0.04995751 C57.40745054 -0.04591504 63.81594436 -0.04736028 70.2244606 -0.05270576 C71.59294401 -0.0538284 71.59294401 -0.0538284 72.98907355 -0.05497371 C74.84250124 -0.0565052 76.69592892 -0.05804355 78.54935659 -0.05958868 C95.92861043 -0.07331508 113.30781925 -0.06787515 130.68707205 -0.05640347 C146.58178029 -0.04647199 162.4763721 -0.05941003 178.37106238 -0.08333766 C194.69662872 -0.10772851 211.02214084 -0.11733649 227.34772503 -0.11068493 C236.51132983 -0.10719255 245.67484511 -0.109426 254.83843613 -0.12693596 C262.63961442 -0.1416578 270.44064014 -0.14229367 278.24181543 -0.12486505 C282.22069817 -0.1163523 286.19930836 -0.11421201 290.17817688 -0.1295166 C293.82388007 -0.14336586 297.4690773 -0.13859799 301.11475123 -0.11927737 C303.05133502 -0.11374289 304.98794457 -0.12778702 306.92447937 -0.14263147 C316.55922786 -0.06133464 323.91926588 2.02884211 331.12039185 8.6103363 C337.47131765 15.79857323 338.84322503 22.87276125 338.81095886 32.18278503 C338.8122405 33.52935853 338.8122405 33.52935853 338.81354803 34.90313554 C338.81519776 37.91720961 338.8096897 40.93122828 338.80422974 43.94529724 C338.80394773 46.10349527 338.80410586 48.26169339 338.80467224 50.41989136 C338.80495969 56.28517829 338.79907142 62.15044485 338.79209828 68.01572704 C338.78585602 74.14298589 338.78526025 80.27024518 338.78407288 86.39750671 C338.78096214 98.0031905 338.77275221 109.60886489 338.76272339 121.21454453 C338.75155427 134.42599291 338.74604978 147.63744172 338.74102795 160.84889364 C338.7305694 188.02849433 338.71297492 215.20808666 338.69070435 242.38768005 C339.50461136 242.44930832 340.31851837 242.51093658 341.15708923 242.57443237 C342.23012802 242.65903214 343.30316681 242.7436319 344.40872192 242.83079529 C345.47012894 242.91304855 346.53153595 242.99530182 347.62510681 243.08004761 C351.67860028 243.48681532 355.471221 244.3239532 359.37820435 245.45018005 C360.13440063 245.66569519 360.89059692 245.88121033 361.66970825 246.10325623 C391.94534816 255.19097424 417.37659175 276.71088272 432.56619263 304.23997498 C436.35284944 311.37963069 439.33366566 318.66051854 441.69070435 326.38768005 C441.90098267 327.0650824 442.11126099 327.74248474 442.32791138 328.44041443 C448.08161376 347.92009092 448.37454165 372.90331354 442.69070435 392.38768005 C442.49734497 393.05299744 442.3039856 393.71831482 442.10476685 394.40379333 C437.06416012 411.23304125 428.9015848 425.92693165 417.69070435 439.38768005 C417.13511841 440.0837738 416.57953247 440.77986755 416.0071106 441.49705505 C398.31673577 463.16656567 369.12883903 477.20222328 341.69070435 480.38768005 C310.47138978 482.31543359 281.35718987 477.41698887 255.69070435 458.38768005 C254.88076649 457.54728715 254.07082863 456.70689425 253.2363472 455.84103489 C248.94713487 452.28981977 244.47981629 452.7030012 239.12789917 452.77536011 C238.06402111 452.76982669 237.00014306 452.76429328 235.90402627 452.75859219 C232.33871033 452.74601106 228.77451168 452.76900627 225.20925903 452.79173279 C222.65320075 452.78982906 220.09714329 452.78567406 217.54109192 452.7794342 C212.03588485 452.77063727 206.53101499 452.77682181 201.02584076 452.79609489 C193.05549517 452.82362024 185.08539771 452.81974182 177.11502507 452.80750907 C164.16870856 452.78811891 151.22247386 452.7880534 138.27615356 452.80296326 C137.11435205 452.80429246 137.11435205 452.80429246 135.9290798 452.80564851 C132.79115691 452.80928218 129.65323414 452.81299955 126.51531146 452.81681507 C117.88578911 452.82727003 109.25626572 452.83552067 100.6267395 452.84202576 C99.46817629 452.84290811 99.46817629 452.84290811 98.28620777 452.84380829 C85.39250888 452.85309847 72.49885885 452.84659497 59.60516858 452.82971531 C51.6586274 452.82014086 43.7123494 452.82524003 35.765838 452.84948302 C29.67143962 452.8671415 23.57722113 452.86470545 17.48279762 452.85504532 C14.98752067 452.85451079 12.49223122 452.86083305 9.99699211 452.87458611 C6.58485045 452.89247679 3.1735897 452.88568589 -0.23855591 452.87301636 C-1.71203047 452.88977288 -1.71203047 452.88977288 -3.21527219 452.90686792 C-12.14307615 452.8261732 -20.1331559 450.32322209 -26.7741394 444.16893005 C-32.06407856 438.03098539 -34.43118788 431.67789421 -34.44631004 423.65896511 C-34.44896187 422.96795471 -34.4516137 422.2769443 -34.45434588 421.56499419 C-34.46205058 419.23231127 -34.4625985 416.89968089 -34.4631958 414.56698608 C-34.46720966 412.88447946 -34.47164776 411.20197381 -34.47647536 409.51946932 C-34.48845538 404.88231051 -34.49409262 400.24516212 -34.49865651 395.60799086 C-34.50460724 390.61188868 -34.51621845 385.61579897 -34.52694702 380.6197052 C-34.55148385 368.54664995 -34.56610041 356.47359055 -34.57900709 344.40051803 C-34.5827182 340.9912623 -34.5866915 337.58200698 -34.59075975 334.17275167 C-34.61599632 313.00799639 -34.63805247 291.84324048 -34.6504879 270.67847347 C-34.65341767 265.77465754 -34.65637932 260.87084164 -34.65939331 255.96702576 C-34.66013936 254.74818392 -34.66088541 253.52934209 -34.66165407 252.27356566 C-34.67430803 232.52846293 -34.70753082 212.78345025 -34.74919514 193.03838962 C-34.79160813 172.77260335 -34.81518224 152.50686319 -34.82040846 132.24103266 C-34.82382338 120.86009942 -34.83558812 109.47930687 -34.8685112 98.09841728 C-34.89650413 88.40580399 -34.90751434 78.71336021 -34.89631574 69.02070963 C-34.89112712 64.07563875 -34.89402924 59.13092291 -34.91878128 54.18590355 C-34.94126568 49.65608162 -34.94054018 45.12686995 -34.92157741 40.59703738 C-34.91877626 38.96101619 -34.92438237 37.32495368 -34.93939035 35.68899893 C-35.02957268 25.21561223 -34.1053605 17.07347425 -27.09835815 8.7665863 C-26.38421753 8.16717224 -25.6700769 7.56775818 -24.93429565 6.95018005 C-24.22531128 6.33271912 -23.5163269 5.71525818 -22.78585815 5.0790863 C-15.29756262 -0.0351597 -8.8892821 -0.04248562 0 0 Z M-13.30929565 24.38768005 C-14.73791981 27.24492836 -14.44016272 29.670938 -14.44631004 32.86675739 C-14.44896187 33.54291657 -14.4516137 34.21907575 -14.45434588 34.91572461 C-14.46206559 37.20386026 -14.46259907 39.4919425 -14.4631958 41.78009033 C-14.46720866 43.42817418 -14.47164658 45.07625705 -14.47647536 46.72433871 C-14.48846626 51.27079576 -14.49409511 55.81724218 -14.49865651 60.36371195 C-14.504603 65.26021247 -14.51621513 70.15670022 -14.52694702 75.05319214 C-14.55149155 86.88636918 -14.56610048 98.71955046 -14.57900709 110.55274513 C-14.5827173 113.89293709 -14.58669066 117.23312862 -14.59075975 120.57332015 C-14.61599274 141.30002698 -14.63805341 162.02673445 -14.6504879 182.75345325 C-14.65341776 187.55641495 -14.6563794 192.35937662 -14.65939331 197.16233826 C-14.66013936 198.35614161 -14.66088541 199.54994496 -14.66165407 200.77992418 C-14.67431518 220.13077776 -14.70754731 239.48153962 -14.74919514 258.83235029 C-14.79157062 278.68336622 -14.81517779 298.53433513 -14.82040846 318.38539618 C-14.82382739 329.53759044 -14.83563933 340.68964131 -14.8685112 351.84179115 C-14.89645254 361.3369444 -14.90753709 370.83192488 -14.89631574 380.32711605 C-14.89111404 385.17435025 -14.89411352 390.02122233 -14.91878128 394.86840439 C-14.94116176 399.30302113 -14.94062186 403.73701326 -14.92157741 408.17164012 C-14.91876159 409.77866583 -14.92446312 411.38573289 -14.93939035 412.99269173 C-14.95840967 415.17292113 -14.94677074 417.35090317 -14.92732811 419.53107929 C-14.92868464 420.7432016 -14.93004117 421.95532391 -14.9314388 423.2041772 C-14.13151082 427.297404 -12.47926464 428.77220469 -9.30929565 431.38768005 C-5.85743342 433.11361117 -1.87021165 432.52001045 1.9286499 432.50793457 C3.38291604 432.50921621 3.38291604 432.50921621 4.86656129 432.51052374 C8.13559746 432.51217907 11.40458302 432.50665627 14.6736145 432.50120544 C17.00885517 432.50092356 19.34409593 432.50108133 21.67933655 432.50164795 C28.0364611 432.50193587 34.39356694 432.49604003 40.75068712 432.48907399 C46.71593927 432.48347062 52.68119066 432.48245191 58.64644508 432.48142212 C70.46393609 432.47923202 82.28142021 432.47257305 94.09890747 432.46311951 C105.58035243 432.45394432 117.06179552 432.446864 128.54324341 432.44261169 C129.25063591 432.44234897 129.95802842 432.44208625 130.68685706 432.44181556 C134.23554067 432.44051055 137.78422429 432.43924684 141.33290792 432.43800366 C170.78551117 432.42763234 200.23810768 432.40994096 229.69070435 432.38768005 C228.89993635 430.96098397 228.10875953 429.53451449 227.31741333 428.10813904 C226.65660011 426.91655434 226.65660011 426.91655434 225.98243713 425.70089722 C224.89036909 423.74523691 223.78147542 421.80114078 222.6633606 419.8603363 C207.38886355 392.5911422 203.25460136 360.41328475 211.29275513 330.11863708 C217.13428334 309.60108968 227.05591867 292.90627162 241.69070435 277.38768005 C242.30300903 276.71092224 242.91531372 276.03416443 243.5461731 275.3368988 C261.60410622 256.12387401 287.35580946 246.33579143 312.97195435 242.9306488 C316.4992359 242.61395503 316.4992359 242.61395503 318.69070435 241.38768005 C318.78410762 213.58920311 318.85466398 185.79074965 318.89795303 157.99214745 C318.91858631 145.08503858 318.9467217 132.17802716 318.99246216 119.27098083 C319.03230629 108.02240771 319.05813158 96.77390516 319.06705832 85.52526343 C319.07227713 79.56808273 319.08455946 73.61110393 319.11362457 67.65398788 C319.14075518 62.04799499 319.149154 56.44228736 319.14313507 50.83623505 C319.14423635 48.77789129 319.15220408 46.71953809 319.16752625 44.66125107 C319.18741708 41.85164117 319.18264666 39.04310939 319.17172241 36.23347473 C319.18337378 35.41828884 319.19502514 34.60310296 319.20702958 33.76321447 C319.15198537 28.5285228 318.15908479 25.54264099 314.69070435 21.38768005 C312.12790556 20.10628066 310.31625662 20.25874351 307.44539928 20.25345898 C306.3263307 20.24900113 305.20726212 20.24454329 304.05428237 20.23995036 C302.81452425 20.24013472 301.57476612 20.24031908 300.29743958 20.24050903 C298.98843825 20.23683235 297.67943692 20.23315566 296.33076888 20.22936755 C292.68503393 20.21933052 289.03931545 20.21562803 285.39356863 20.21297824 C281.4664023 20.20908026 277.53924906 20.19950163 273.61209106 20.19076538 C264.1222772 20.17098727 254.63246225 20.16093334 245.14263293 20.15203759 C240.67682733 20.14765715 236.21102293 20.14228973 231.74521828 20.13704872 C216.90544601 20.12003557 202.0656745 20.10554032 187.22589397 20.09829998 C183.37342516 20.09639 179.52095634 20.09446968 175.66848755 20.09251404 C174.71094276 20.0920303 173.75339798 20.09154656 172.76683668 20.09104816 C157.24740803 20.08274385 141.72805636 20.05740058 126.20866134 20.02493336 C110.28556758 19.99189237 94.36251299 19.97385393 78.43938476 19.97065574 C69.49491308 19.96848796 60.55055367 19.95970021 51.60611534 19.93419456 C43.99026678 19.91252799 36.37455775 19.90441716 28.75868186 19.91416135 C24.87145295 19.91871777 20.98451218 19.91674247 17.09732246 19.8973999 C12.88631709 19.87662657 8.67595564 19.88671564 4.46492004 19.89993286 C3.23185409 19.88896362 1.99878813 19.87799437 0.72835654 19.86669272 C-7.18717441 19.76994374 -7.18717441 19.76994374 -13.30929565 24.38768005 Z M250.21609497 296.61668396 C236.70513899 312.30305955 227.56477228 333.592147 226.69070435 354.38768005 C226.63914185 355.29904724 226.58757935 356.21041443 226.53445435 357.1493988 C225.6729731 385.75775532 237.01453082 411.85947467 256.44070435 432.57518005 C277.57184656 452.64976516 303.72512727 461.00471144 332.44851685 460.66893005 C357.40843776 459.90818879 379.22044083 448.65119489 396.69070435 431.38768005 C397.4177356 430.7328363 398.14476685 430.07799255 398.89382935 429.40330505 C414.59059353 414.94250655 424.39571789 391.51289833 425.89724731 370.49681091 C425.99311667 367.54050789 426.01998815 364.59546551 426.00320435 361.63768005 C425.99474487 360.06180115 425.99474487 360.06180115 425.9861145 358.4540863 C425.56107723 331.08336902 413.83824641 307.91020132 394.9992981 288.6337738 C375.79595011 270.32490491 349.39288452 260.66073076 322.9602356 261.2040863 C294.32266082 262.81216995 269.44040226 275.49009473 250.21609497 296.61668396 Z " fill="#FAC801" transform="translate(50.309295654296875,15.612319946289063)"/>
<path d="M0 0 C1.48004933 -0.00761181 1.48004933 -0.00761181 2.98999864 -0.0153774 C4.08190072 -0.01587516 5.17380281 -0.01637292 6.29879284 -0.01688576 C7.45261918 -0.02126801 8.60644552 -0.02565027 9.79523629 -0.03016531 C13.00771416 -0.04124625 16.22016451 -0.04778281 19.43265712 -0.05234647 C22.89356435 -0.05829665 26.35445354 -0.06990788 29.81534863 -0.08063698 C38.1779695 -0.10517325 46.54059634 -0.11978934 54.90324214 -0.13269705 C57.26425554 -0.1364079 59.62526835 -0.14038121 61.98628116 -0.14444971 C76.6405852 -0.16968365 91.29489014 -0.19174178 105.94921112 -0.20417786 C109.34448087 -0.20710766 112.73975058 -0.21006931 116.13502026 -0.21308327 C116.97892168 -0.21382932 117.82282311 -0.21457537 118.6922973 -0.21534403 C132.36879257 -0.22800279 146.04515799 -0.2612322 159.72159252 -0.3028851 C173.75530487 -0.34527664 187.78895068 -0.36886961 201.82272691 -0.37409842 C209.70530294 -0.37751557 217.58767599 -0.38930632 225.47018909 -0.42220116 C232.18209816 -0.45016465 238.89376265 -0.46121739 245.60572544 -0.4500057 C249.03127998 -0.44480952 252.45632206 -0.44776664 255.88180256 -0.47247124 C259.59382306 -0.49501137 263.30454113 -0.48693657 267.01656628 -0.47098732 C268.1017762 -0.48486941 269.18698612 -0.49875149 270.30508119 -0.51305425 C277.60180721 -0.43548885 277.60180721 -0.43548885 281.49387932 2.5500145 C284.56439304 6.83385355 284.51325951 10.03010385 284.54102612 15.16338158 C284.54920361 15.99284294 284.5573811 16.82230431 284.56580639 17.67690086 C284.59067247 20.42922299 284.60718035 23.18149347 284.62159252 25.93388939 C284.6269162 26.8733667 284.63223988 27.81284401 284.63772488 28.78079033 C284.66446298 33.7543411 284.68383491 38.72786671 284.69825268 43.70146751 C284.71489335 48.83754933 284.75966433 53.97298859 284.81062412 59.10882759 C284.84429141 63.05855097 284.8558296 67.00812182 284.86147976 70.95797539 C284.86819471 72.85100522 284.88342315 74.74402494 284.90737057 76.63691521 C284.93901153 79.28949762 284.93906069 81.94034727 284.93165112 84.59306908 C284.94805645 85.37251884 284.96446178 86.15196861 284.98136425 86.95503807 C284.93579123 90.94874643 284.51591753 93.42828638 281.99918652 96.60851097 C278.53474204 99.91283222 276.2225107 100.26151331 271.62290764 100.27123547 C270.15647207 100.27792223 270.15647207 100.27792223 268.66041154 100.28474408 C267.04546012 100.28446754 267.04546012 100.28446754 265.39788342 100.28418541 C264.25615887 100.2878621 263.11443433 100.29153879 261.93811208 100.29532689 C258.76402665 100.30445436 255.58997162 100.30906355 252.41587532 100.3117162 C248.99450526 100.31561939 245.57315017 100.32519763 242.15178967 100.33392906 C233.88746455 100.35369161 225.62313821 100.36375878 217.35879537 100.37265685 C213.46792694 100.37703953 209.57705987 100.38240634 205.68619251 100.38764572 C192.75420921 100.40465673 179.82222676 100.41915174 166.89023399 100.42639446 C163.5343294 100.42830438 160.17842482 100.43022471 156.82252026 100.4321804 C155.5713676 100.43290601 155.5713676 100.43290601 154.29493914 100.43364628 C140.7776341 100.44194979 127.26041746 100.46729265 113.74315103 100.49976108 C99.86873304 100.53281606 85.99436001 100.55084175 72.11990243 100.5540387 C64.32844518 100.5562051 56.53711689 100.56497278 48.74569798 100.59049988 C42.11144974 100.61218547 35.47736181 100.62026787 28.84308215 100.6105331 C25.45789767 100.60598218 22.07331279 100.61009253 18.68812847 100.62729454 C15.0182632 100.64490264 11.34924238 100.63796096 7.67937756 100.62476158 C6.60943544 100.63573083 5.53949333 100.64670007 4.43712872 100.65800172 C-1.55463763 100.60582773 -5.10845792 100.17906582 -9.65184498 96.13701439 C-11.25579274 92.92911888 -10.81711443 89.4359434 -10.82884693 85.91118431 C-10.83541813 85.06060951 -10.84198933 84.21003471 -10.84875965 83.33368492 C-10.86851194 80.51161682 -10.88015936 77.68960197 -10.89012623 74.86748314 C-10.89420176 73.90469255 -10.89827728 72.94190197 -10.90247631 71.94993591 C-10.92334502 66.85433859 -10.93764342 61.75876827 -10.94701099 56.66313744 C-10.95807873 51.39702535 -10.9924806 46.13133543 -11.03218269 40.86537266 C-11.05831421 36.81875377 -11.06669974 32.77223601 -11.07029247 28.72554016 C-11.07516719 26.78425621 -11.0868063 24.84297704 -11.10533047 22.90177536 C-11.12964889 20.18451826 -11.12877037 17.46836041 -11.12181568 14.75102806 C-11.13462574 13.94928154 -11.1474358 13.14753502 -11.16063404 12.32149315 C-11.12542548 8.54687545 -10.80254062 6.37249949 -8.74747181 3.16113853 C-5.71587112 0.23297591 -4.1013732 0.01116403 0 0 Z M9.34815502 20.13701439 C9.34815502 39.93701439 9.34815502 59.73701439 9.34815502 80.13701439 C93.49815502 80.13701439 177.64815502 80.13701439 264.34815502 80.13701439 C264.34815502 60.33701439 264.34815502 40.53701439 264.34815502 20.13701439 C180.19815502 20.13701439 96.04815502 20.13701439 9.34815502 20.13701439 Z " fill="#FAC702" transform="translate(65.65184497833252,54.862985610961914)"/>
<path d="M0 0 C1.99666494 1.60804826 3.93512804 3.25924635 5.875 4.9375 C6.53628906 5.49824219 7.19757813 6.05898438 7.87890625 6.63671875 C23.20545884 20.75421615 32.69772392 42.2988106 34.00146484 62.93969727 C34.93098263 88.30013948 27.3125016 110.92885852 10.21875 129.8828125 C-4.77299231 145.86327015 -26.1058159 156.30006096 -48.18359375 157.140625 C-73.77911483 157.60128024 -96.11550997 149.90954144 -114.92944336 132.22241211 C-132.34101159 115.14517414 -140.39182697 93.41872682 -140.625 69.375 C-140.42121418 44.61502245 -130.93064227 22.934666 -113.27075195 5.54638672 C-103.33496808 -3.80746248 -91.97929261 -9.72678184 -79.125 -14.0625 C-78.14917969 -14.4028125 -77.17335938 -14.743125 -76.16796875 -15.09375 C-50.59834491 -22.48737617 -20.88873379 -16.09734807 0 0 Z M-103.125 24.9375 C-103.87394531 25.71738281 -104.62289062 26.49726563 -105.39453125 27.30078125 C-117.55404304 41.13426024 -121.21705461 58.75068345 -120.3203125 76.67431641 C-118.780306 94.51914177 -109.20934754 110.54803663 -95.7265625 121.9921875 C-80.74795657 133.19240635 -63.27112023 139.01253481 -44.50390625 136.44140625 C-25.31033172 132.96416706 -9.40027435 123.81715557 2.13671875 107.796875 C12.34730245 91.86760949 16.06844598 74.73012408 12.625 56.078125 C8.49558913 38.78621697 -1.6476493 23.23654356 -16.609375 13.4609375 C-45.6624856 -4.13333755 -79.85820151 0.27956258 -103.125 24.9375 Z " fill="#FAC801" transform="translate(430.125,307.0625)"/>
<path d="M0 0 C3.72528805 3.25962704 4.91223813 4.91175277 5.3125 9.875 C5.209375 10.90625 5.10625 11.9375 5 13 C5.556875 13.13535156 6.11375 13.27070313 6.6875 13.41015625 C14.45851102 15.60231645 20.25160679 19.68591603 24.4375 26.6875 C27.00312763 32.12663057 27.58704809 37.02278306 27 43 C25.67799988 46.27021081 24.74347761 47.54565257 21.75 49.375 C18.12965664 50.19780531 15.59325392 49.91464645 12 49 C8.53889068 46.69259379 7.69343382 44.2801757 6.5625 40.4375 C5.63440707 37.46760263 5.17687036 36.17687036 2.9375 33.9375 C-2.50402655 32.20084259 -7.85131677 31.9914344 -13.0625 34.4375 C-14.89013772 35.85462668 -14.89013772 35.85462668 -16 37 C-16.04080783 38.99958364 -16.04254356 41.00045254 -16 43 C-9.66567473 45.97378093 -3.29298929 47.46960515 3.52929688 48.9296875 C10.86290942 50.63023534 17.45843912 53.51204947 22.375 59.4375 C22.83648437 59.97246094 23.29796875 60.50742187 23.7734375 61.05859375 C27.81849003 67.4611132 27.80890772 74.6940143 27 82 C24.72463301 89.8754207 19.63753766 95.37074297 13 100 C10.93359375 100.84375 10.93359375 100.84375 9.0625 101.4375 C5.86758075 102.62090862 5.86758075 102.62090862 5.30078125 105.03125 C5.01783631 106.63027829 4.74949063 108.23196139 4.49609375 109.8359375 C4 112 4 112 1.9375 114.5625 C-2.12995551 116.55295695 -5.56477389 117.05256272 -10 116 C-13 113.4375 -13 113.4375 -15 110 C-15.0309375 108.2675 -15.0309375 108.2675 -15.0625 106.5 C-15.61129561 102.84165982 -15.61129561 102.84165982 -18.5078125 101.46875 C-20.65769622 100.47568332 -22.8142084 99.49686181 -24.9765625 98.53125 C-30.97185563 95.49487415 -34.63644056 90.21989327 -37 84 C-38.4671313 77.80165459 -38.26693092 73.51998673 -35 68 C-31.72246406 65.30773834 -28.09185899 65.70772436 -24 66 C-21.75 66.5625 -21.75 66.5625 -20 68 C-18.42929236 71.20182711 -17.19757952 74.3312693 -16.1875 77.75 C-14.43575101 81.06910334 -12.4843261 81.75090196 -9 83 C-3.74056341 83.56351106 -0.51202049 82.72819844 4 80 C6.20857238 78.17213728 6.20857238 78.17213728 6.4375 75.5625 C6.27052532 72.87453732 6.27052532 72.87453732 4.1171875 71.4921875 C-1.02076427 69.03266673 -6.52580751 68.14741001 -12.07617188 66.98242188 C-19.68567892 65.29687515 -26.73942402 63.26696381 -31.875 57.0625 C-32.42929687 56.41410156 -32.98359375 55.76570313 -33.5546875 55.09765625 C-37.77521392 48.97218952 -38.53057967 41.6832499 -37.70703125 34.4140625 C-35.82056348 26.38707883 -30.53728111 20.04052689 -23.73828125 15.484375 C-20.72966664 13.90499136 -18.41972397 13 -15 13 C-15.103125 11.783125 -15.20625 10.56625 -15.3125 9.3125 C-15.33206475 5.63432657 -15.09916854 5.12265583 -12.625 2.0625 C-8.37620498 -1.27583895 -5.16984759 -1.59148272 0 0 Z " fill="#FAC801" transform="translate(382,319)"/>
<path d="M0 0 C9.18179099 7.22358912 15.03082705 17.3105519 16.47265625 28.9453125 C17.62044801 41.34556273 14.14611641 52.19169748 6.47265625 61.9453125 C-1.3028719 70.47903531 -11.48794207 75.10860755 -22.890625 76.1640625 C-35.43212585 76.64411995 -46.33171309 72.50163382 -55.59375 64.0625 C-64.0133199 55.0792008 -68.11069534 43.85337529 -67.76953125 31.609375 C-66.7104909 19.95993118 -62.31039085 10.12646292 -53.71484375 2.0703125 C-37.78329899 -10.75488859 -16.87017826 -11.60279886 0 0 Z M-42.52734375 19.9453125 C-46.16667973 25.06005495 -47.79228673 29.61847409 -47.52734375 35.9453125 C-46.39027363 42.0331658 -44.04556873 46.62789752 -39.52734375 50.9453125 C-33.95066605 54.67905379 -27.93382642 56.79357918 -21.234375 55.50390625 C-14.44863333 53.514786 -10.35257192 50.51049803 -6.21484375 44.6953125 C-3.27935843 38.99701747 -2.84977507 33.386546 -4.65234375 27.2578125 C-7.0294506 21.1115993 -10.5865078 16.79172799 -16.58203125 13.703125 C-26.23192671 9.94392878 -35.45383616 12.70730473 -42.52734375 19.9453125 Z " fill="#FAC801" transform="translate(333.52734375,180.0546875)"/>
<path d="M0 0 C9.21378547 8.97131743 13.71726089 19.45078029 13.9375 32.1875 C13.80532725 44.19776323 10.25098198 53.49194876 1.76953125 62.15625 C-7.40931281 70.42170175 -17.62422472 74.7326811 -30.07421875 74.5234375 C-41.55296101 73.57420001 -51.99422779 68.99095875 -59.95703125 60.57421875 C-68.19024129 49.41021731 -70.79724268 37.95701191 -69.625 24.3125 C-67.34174611 12.33229433 -60.30003937 3.45714446 -50.625 -3.6875 C-33.98614979 -14.25184934 -15.61761805 -10.03989731 0 0 Z M-46.625 20.3125 C-49.68520813 25.42990491 -50.18205369 30.46343627 -49.625 36.3125 C-47.48082057 43.10240153 -43.69970485 48.30725771 -37.75 52.1875 C-31.24184412 54.53043612 -26.31398304 54.90692261 -19.8671875 52.453125 C-14.52730119 49.73666715 -10.70900581 46.10788462 -7.625 41 C-5.9583415 34.85419678 -5.53168165 29.07234343 -8.125 23.125 C-11.43449385 17.359698 -16.14894992 13.27773986 -22.3125 10.875 C-32.32056364 9.17551749 -40.02172945 12.72253385 -46.625 20.3125 Z " fill="#FAC801" transform="translate(124.625,354.6875)"/>
<path d="M0 0 C8.31686673 7.07012579 14.41762968 15.76051332 16.05859375 26.75 C16.88388909 39.74840154 14.99016798 50.2192841 7.05859375 60.75 C-1.1650922 69.9558374 -11.02831845 74.90633295 -23.328125 75.953125 C-36.10443752 76.21342339 -46.78723748 71.70831153 -56.19140625 63.125 C-65.51727205 53.32622011 -67.43398847 42.24461601 -67.21484375 29.30859375 C-66.77742914 18.75650758 -61.7006772 9.1168557 -53.9921875 1.93359375 C-38.04180384 -10.56975219 -16.83671016 -12.35721846 0 0 Z M-40.81640625 18 C-45.76979135 23.5050382 -47.55925278 28.92635167 -47.28125 36.265625 C-46.31231494 43.34887437 -42.45980986 47.93323657 -37.01171875 52.3359375 C-32.00096501 55.75837685 -27.05577401 56.20787586 -21.2109375 55.3515625 C-14.55290734 53.58678342 -9.78816135 49.29385294 -5.94140625 43.75 C-3.49796645 38.39770329 -2.99369314 33.09253306 -4.59375 27.44921875 C-7.13760958 20.95309665 -10.83058103 16.58320584 -17.25390625 13.71875 C-25.92508034 10.63820131 -33.95994843 11.5220303 -40.81640625 18 Z " fill="#FAC801" transform="translate(227.94140625,180.25)"/>
<path d="M0 0 C8.7755049 6.41006098 15.03576202 14.91626528 17.34765625 25.71484375 C18.13742961 38.778472 17.77397094 50.24513286 9.09375 60.80859375 C0.86196189 69.79542283 -8.49995563 75.79989716 -20.90625 76.91796875 C-33.73107083 77.1783712 -44.70424951 73.19416668 -54.33984375 64.71484375 C-63.21318293 55.33566101 -66.16332149 43.37843615 -65.92578125 30.8984375 C-65.46394662 20.83638692 -61.46244752 12.97242867 -54.65234375 5.71484375 C-54.05550781 5.07675781 -53.45867187 4.43867188 -52.84375 3.78125 C-38.35785819 -10.22278263 -16.40883632 -10.63583844 0 0 Z M-40.65234375 20.58984375 C-44.6371047 25.67158595 -46.1097007 30.17029937 -45.8984375 36.70703125 C-45.09775062 43.23961945 -41.30207364 48.31583459 -36.65234375 52.71484375 C-31.53485987 56.12649967 -25.66274728 57.42478336 -19.578125 56.34765625 C-12.69165811 54.15589272 -7.35267842 49.53102305 -3.65234375 43.40234375 C-1.98568525 37.25654053 -1.5590254 31.47468718 -4.15234375 25.52734375 C-7.4618376 19.76204175 -12.17629367 15.68008361 -18.33984375 13.27734375 C-27.05629976 11.79719084 -34.58566496 13.96472591 -40.65234375 20.58984375 Z " fill="#FAC801" transform="translate(120.65234375,179.28515625)"/>
<path d="M0 0 C8.88881055 6.52389765 15.06355429 14.96552863 17.80078125 25.72265625 C19.67887809 38.30021389 17.79111901 49.23397707 10.9765625 59.92578125 C4.20145086 68.96419438 -5.4907183 75.00967605 -16.609375 77.03125 C-28.74797889 78.58085901 -39.96774429 75.61291851 -49.8125 68.3125 C-57.42305512 62.23764618 -62.75893116 53.90447183 -64.8125 44.3125 C-65.70029122 29.62755991 -64.31895876 18.82413475 -55.08203125 6.828125 C-40.96955189 -8.81462321 -17.67165212 -10.91931689 0 0 Z M-41.22265625 22.18359375 C-45.01221838 28.10544431 -45.89096697 33.37949808 -44.8125 40.3125 C-42.96588801 46.86166426 -38.57506525 51.80485159 -32.8125 55.3125 C-26.62346449 57.61284948 -21.0198113 57.94073184 -14.87890625 55.4140625 C-8.70893061 52.12496396 -5.00477407 48.15656882 -2.47265625 41.6015625 C-0.65228235 35.2894968 -1.60847653 30.28253023 -4.48828125 24.421875 C-8.30564641 18.34111634 -13.96333709 15.06495106 -20.8125 13.3125 C-28.40750686 12.14403741 -36.73425336 16.22806748 -41.22265625 22.18359375 Z " fill="#FAC801" transform="translate(225.8125,351.6875)"/>
<path d="M0 0 C0.886875 0.680625 1.77375 1.36125 2.6875 2.0625 C3.656875 2.743125 4.62625 3.42375 5.625 4.125 C13.66584325 11.0231971 18.0860322 21.25087722 19 31.6015625 C19.4436338 45.21557464 15.97308418 55.94869905 6.6875 66.0625 C-4.227579 75.40608093 -15.26245178 77.89630255 -29.34130859 77.24169922 C-39.2401032 76.3418088 -48.40444805 70.42972795 -55.0625 63.3125 C-64.41806446 51.99879414 -65.3940286 40.17977137 -64.3125 26.0625 C-62.39095554 16.04963277 -56.16282686 7.77852572 -48.33984375 1.41015625 C-33.48765009 -8.46268925 -15.3029639 -8.95079021 0 0 Z M-41.0859375 23.18359375 C-44.79826087 28.87030566 -45.04562258 34.45511673 -44.3125 41.0625 C-42.52952809 47.29756344 -38.63900319 51.51149787 -33.3125 55.0625 C-27.63614704 57.7772775 -21.71179374 58.11869081 -15.72265625 56.2578125 C-9.15509594 53.39376364 -5.43072889 49.49456624 -2.3125 43.0625 C-0.4312849 36.92810295 -0.69201985 31.77426571 -3.25 25.9375 C-6.57820022 19.74838268 -11.7228366 16.25905447 -18.3125 14.0625 C-28.23897517 12.98698493 -34.73015542 15.53180024 -41.0859375 23.18359375 Z " fill="#FAC801" transform="translate(225.3125,264.9375)"/>
<path d="M0 0 C9.09512109 6.51275635 13.75117463 14.75352388 17.25 25.25 C18.15189864 39.79866003 16.77608409 51.57999443 7.25 63.25 C0.30056428 70.82564861 -9.16681025 75.82862059 -19.47265625 76.48828125 C-33.61425114 76.853984 -43.97322037 74.00599771 -54.75 64.25 C-64.43694809 52.95445287 -66.54656895 41.81368512 -65.75 27.25 C-64.18491716 16.89747953 -58.0732196 7.30949093 -50 0.75 C-34.44499816 -9.62000123 -15.79366488 -9.69879421 0 0 Z M-39.57421875 19.12109375 C-43.9214724 24.6893678 -46.33160107 29.6341311 -46.1171875 36.78125 C-45.26659843 42.50010418 -42.91072804 47.3806486 -38.51953125 51.1796875 C-32.32139416 55.40614966 -27.24310459 57.07862136 -19.75 56.25 C-13.11879983 54.44248074 -8.43470058 51.06095402 -4.75 45.25 C-1.9862858 39.43765261 -1.62780712 33.17431521 -3.40234375 26.96875 C-6.08366302 20.98468982 -10.50560624 17.17909899 -16.0625 13.875 C-24.48510529 11.91625458 -33.29206153 12.67751065 -39.57421875 19.12109375 Z " fill="#FAC801" transform="translate(120.75,265.75)"/>
</svg>
